HIERARCHY
ROOT HipCenter
{
    OFFSET 0.0 0.0 -0.0
    CHANNELS 6 Xposition Yposition Zposition Zrotation Xrotation Yrotation
    JOINT Spine
    {
        OFFSET 0.0 20.93042755126953 0.0
        CHANNELS 3 Zrotation Xrotation Yrotation
        JOINT ShoulderCenter
        {
            OFFSET 0.0 27.76237678527832 0.0
            CHANNELS 3 Zrotation Xrotation Yrotation
            JOINT LeftShoulder
            {
                OFFSET 20.745866775512695 0.0 0.0
                CHANNELS 3 Zrotation Xrotation Yrotation
                JOINT LeftElbow
                {
                    OFFSET 25.892244338989258 0.0 0.0
                    CHANNELS 3 Zrotation Xrotation Yrotation
                    JOINT LeftWrist
                    {
                        OFFSET 27.919445037841797 0.0 0.0
                        CHANNELS 3 Zrotation Xrotation Yrotation
                        JOINT LeftHand
                        {
                            OFFSET 6.715752601623535 0.0 0.0
                            CHANNELS 3 Zrotation Xrotation Yrotation
                            End Site
                            {
                                OFFSET 2.6863009929656982 0.0 0.0
                            }
                        }
                    }
                }
            }
            JOINT RightShoulder
            {
                OFFSET -20.745866775512695 0.0 0.0
                CHANNELS 3 Zrotation Xrotation Yrotation
                JOINT RightElbow
                {
                    OFFSET -25.892244338989258 0.0 0.0
                    CHANNELS 3 Zrotation Xrotation Yrotation
                    JOINT RightWrist
                    {
                        OFFSET -27.919445037841797 0.0 0.0
                        CHANNELS 3 Zrotation Xrotation Yrotation
                        JOINT RightHand
                        {
                            OFFSET -6.715752601623535 0.0 0.0
                            CHANNELS 3 Zrotation Xrotation Yrotation
                            End Site
                            {
                                OFFSET -2.6863009929656982 0.0 0.0
                            }
                        }
                    }
                }
            }
            End Site
            {
                OFFSET 0.0 11.104948997497559 0.0
            }
        }
    }
    JOINT LeftHip
    {
        OFFSET 18.816516876220703 0.0 0.0
        CHANNELS 3 Zrotation Xrotation Yrotation
        JOINT LeftKnee
        {
            OFFSET 0.0 -56.94123840332031 0.0
            CHANNELS 3 Zrotation Xrotation Yrotation
            JOINT LeftAnkle
            {
                OFFSET 0.0 -42.67103576660156 0.0
                CHANNELS 3 Zrotation Xrotation Yrotation
                JOINT LeftFoot
                {
                    OFFSET 0.0 -16.821674346923828 0.0
                    CHANNELS 3 Zrotation Xrotation Yrotation
                    End Site
                    {
                        OFFSET 0.0 0.0 6.7286696434021
                    }
                }
            }
        }
    }
    JOINT RightHip
    {
        OFFSET -18.816516876220703 0.0 0.0
        CHANNELS 3 Zrotation Xrotation Yrotation
        JOINT RightKnee
        {
            OFFSET 0.0 -56.94123840332031 0.0
            CHANNELS 3 Zrotation Xrotation Yrotation
            JOINT RightAnkle
            {
                OFFSET 0.0 -42.67103576660156 0.0
                CHANNELS 3 Zrotation Xrotation Yrotation
                JOINT RightFoot
                {
                    OFFSET 0.0 -16.821674346923828 0.0
                    CHANNELS 3 Zrotation Xrotation Yrotation
                    End Site
                    {
                        OFFSET 0.0 0.0 6.7286696434021
                    }
                }
            }
        }
    }
}
MOTION
Frames: 9
Frame Time: 0.03333333333333333
-13.817599296569824 0.4406999945640564 -268.5747985839844 2.2429734625702444 -4.419522312112329 -175.09975817667925 7.7143569592958094 -47.3183318860209 5.2077664719984424 -5.880065628525918e-08 -1.2211929113704518e-06 -4.316896474689415 -2.7559556086637365 -40.21803290485596 78.58465131387872 2.3984588993770924e-06 2.494380695256189e-07 21.488525458776987 179.99999877541237 -66.18638827326558 -154.4110071479356 -6.3611093629270335e-15 -3.1805546814635168e-15 3.975693351829396e-15 27.68115250315391 -34.65946487650514 -57.31112277121811 -1.0461135418429938e-06 7.400372985562724e-07 -11.863465497617153 -1.0282917032416892e-06 -11.73230013079491 -17.327863003911798 3.1805546814635176e-15 8.827812596100317e-32 3.1805546814635176e-15 0.09975202498437723 -12.530550198171857 41.51786986643157 -8.175738302403293 -5.3487632948240575 -0.691550283931377 90.00010033416666 42.28209407572526 -79.15303922943392 7.951386703658792e-16 2.758691436281349e-33 3.975693351829396e-16 3.6152979125790425 -11.180833979655167 -41.0043673303049 2.326253418027223 -7.681100568083354 0.32367988876156906 -89.99990850354789 45.978699600323274 86.6662134215413 -7.951386703658792e-16 -6.3611093629270335e-15 -4.4139062980501586e-32
-13.84570026397705 0.4334000051021576 -268.68218994140625 1.4138314254470754 -4.393846624668039 -175.68061995127388 6.824337555010539 -47.522353156417736 5.278574064975459 -1.898563269452318e-07 -2.6138491323057876e-06 -4.3450150871523 -2.723093807643936 -39.80269633108308 78.26076230509898 -2.1722748259134108e-09 1.941644490986798e-06 21.04131312565034 179.9999996560707 -72.57560060492281 -157.98784273212132 -6.361109362927035e-15 8.827812596100317e-32 -1.5902773407317588e-15 31.282313072359273 -33.19694838103948 -55.551155702126515 -5.796905798313773e-06 1.4627571363534578e-07 -11.604574096725957 8.152031951445696e-06 -14.629832324654524 -18.027435114399132 0.0 0.0 3.1805546814635164e-15 -0.9336603086372726 -12.37557302318042 41.49803822606904 -8.412318894753788 -6.3107084636216255 -0.8267838249574244 90.0018197316547 42.33814918203203 -79.0385707974314 1.1927080055488188e-15 0.0 0.0 2.570419003085597 -11.158940248718926 -41.01352271698265 2.857287247723535 -7.116854494987384 0.3461641828928121 -90.0012977815175 45.699655310513386 86.13382287018847 -8.945310041616142e-16 6.207055731633036e-33 -7.951386703658792e-16
-13.873800277709961 0.4261000156402588 -268.7897033691406 0.5893613641364474 -4.367222220027677 -176.25885338467833 5.9438822092704555 -47.744210208524656 5.3562063451441295 -1.6568368144696782e-07 4.665261026634231e-06 -4.373884363799857 -2.718140443176882 -39.37613998103656 77.9212326650894 1.2527280771050159e-07 1.4448592143785718e-06 20.59543531869343 -179.99997894887974 -81.3707254620174 -161.15219148600997 -6.3611093629270335e-15 -1.6552148617688095e-32 2.981770013872047e-16 34.88764506051481 -31.58467130278666 -53.855338102664255 -2.367247152687455e-06 2.7719374149666586e-06 -11.374919928134748 -3.5015541465127537e-07 -17.64684095702938 -18.726261186120375 0.0 0.0 -3.1805546814635168e-15 -1.96503204165059 -12.24008922666168 41.47604294951297 -8.636137359024533 -7.276376442356826 -0.9645909151381409 90.00008955531139 42.39319523784353 -78.93538248614527 -3.975693351829396e-16 -5.517382872562698e-33 1.5902773407317584e-15 1.5300461981491893 -11.156564646847581 -41.02244964570242 3.3787517225585835 -6.544427019340981 0.36033706368755525 -89.99993732067392 45.41773326163669 85.59863686780862 9.939233379573484e-17 6.361109362927032e-15 7.95138670365879e-16
-13.63860034942627 0.5896000266075134 -268.927490234375 1.5845798659195385 -4.045125877958623 -176.1390592403736 7.001366754937331 -47.878198902024515 5.068332011810555 8.744104461292549e-08 -9.822607371583256e-07 -4.123071413601247 -3.9431173295830204 -39.33425000274117 77.56019648363764 -3.818995315321424e-06 6.860273956890125e-06 20.264489864253445 179.9999808439759 -76.63739598310698 -158.29533831365183 3.862168010793889e-32 3.1805546814635168e-15 -1.3914926731402886e-15 30.965848737715316 -33.31432486790461 -55.728412800599045 -2.1816063076786336e-06 4.198278635242564e-06 -11.181005884810547 1.8816750826342207e-06 -10.701997260959963 -21.372090788973935 0.0 -6.3611093629270335e-15 0.0 -0.573799882941959 -11.869046232898857 41.465415616110256 -7.993236887652613 -5.680188494479756 -0.6901426854462048 90.00137386380027 42.444251192816196 -79.82915746312769 -7.951386703658791e-16 -1.2722218725854067e-14 7.951386703658791e-16 2.728180218998921 -10.914896664850977 -41.088187571156105 2.8856249050383185 -6.253491284218569 0.2746901894160633 -89.99994524757821 45.52122599650975 86.49098624515297 -1.5902773407317582e-15 6.361109362927033e-15 -7.95138670365879e-16
-13.403399467468262 0.7531999945640564 -269.0653076171875 2.5803753349772394 -3.7217444181778636 -176.03325309183066 8.06479755585474 -48.01380151859319 4.782819795301141 4.01097087298445e-07 2.4055396632399264e-06 -3.869144783286399 -5.203077178615709 -39.285219424533224 77.17708858839006 1.1291794360547601e-06 5.005851328630392e-07 19.937557253843824 179.9999901844116 -72.73546908673173 -155.37080108217572 0.0 0.0 9.939233379573488e-16 26.795544426836976 -35.00332262151042 -57.80589821823364 -1.4971180989244918e-06 1.36596407345751e-06 -11.035922319519571 2.8218786942437935e-06 -4.394037143709662 -24.07212816619317 3.1805546814635176e-15 8.827812596100317e-32 3.1805546814635176e-15 0.8188526870675066 -11.499618341813353 41.45325639395633 -7.359355535942613 -4.0809570064969956 -0.4511800775667179 90.00023655397034 42.514171411117516 -80.72449299855369 -2.2069531490250793e-32 6.3611093629270335e-15 3.975693351829396e-16 3.9288726876253066 -10.674695883288999 -41.15072724460113 2.392087213706674 -5.963554813483871 0.19552167345296606 -89.99979252925317 45.63150319911772 87.38323701944422 7.951386703658792e-16 0.0 0.0
-13.4753999710083 0.7347999811172485 -269.1947021484375 2.251585480799405 -3.608781608784618 -175.8025786489144 7.375151526168577 -47.65283403471355 4.669920108235521 4.763378874767775e-07 4.342378421673147e-07 -3.8272614992373692 -3.0676761933882775 -39.90647238137562 78.36788151950051 2.4661820651615214e-06 2.1728198437173186e-06 20.012787870927472 179.9999876532571 -79.08732901099553 -159.81836605101003 0.0 0.0 4.969616689786744e-16 25.97914213788822 -35.476497977713066 -58.69017860781109 5.355554572542064e-07 2.4148868632213833e-06 -10.658816077317178 -3.7518058060752562e-06 0.004129199287516699 -23.46756529350218 -1.5902773407317588e-15 6.3611093629270335e-15 6.3611093629270335e-15 0.42564766089811323 -11.26518014898151 41.497811974048275 -7.73937447262467 -4.403461316387982 -0.5137822743325292 89.99992484713451 42.30041475979062 -80.18376981355004 -2.2069531490250793e-32 -6.3611093629270335e-15 -3.975693351829396e-16 3.571643187310589 -10.323314700457624 -41.12642371080362 2.3393173662535696 -5.693042194904367 0.19977269208710344 -89.99945645316137 45.69443850608487 87.20120650399937 -3.975693351829396e-16 6.3611093629270335e-15 2.2069531490250793e-32
-13.547399520874023 0.7164000272750854 -269.3240051269531 1.9224147726764658 -3.495885460767977 -175.56951773776797 6.691864485576738 -47.28742862310531 4.561812952233748 -2.556059108084714e-07 1.4203287177731603e-06 -3.7860604386094088 -0.9180730528840707 -40.494779813620774 79.59493865019083 3.333833638691398e-06 -8.753142666784782e-06 20.108441255633306 -179.9999537261127 -87.74061715776834 -164.09747102129026 -6.3611093629270335e-15 -2.2069531490250793e-32 3.975693351829396e-16 25.103159743457105 -35.9571181602327 -59.614800253324916 -2.244999907552445e-06 1.3489940603961926e-06 -10.282972566915479 3.315394789762633e-06 4.618576325813752 -22.959247213727824 -1.5902773407317584e-15 -6.3611093629270335e-15 -3.1805546814635168e-15 0.03394992040750897 -11.0274968321473 41.54147921326933 -8.123346158893755 -4.721658488198339 -0.5800622632971785 89.99982121085318 42.088109273099775 -79.63667053401389 7.951386703658792e-16 2.758691436281349e-33 3.975693351829396e-16 3.2168467344719636 -9.969627912934548 -41.10435974302504 2.2893099151300835 -5.4213779019745765 0.2032118335752183 -90.00026163534837 45.75624729483167 87.01415656036679 -5.963540027744094e-16 0.0 0.0
-13.517400741577148 0.6121000051498413 -269.502197265625 1.3898932352316502 -2.9733725135978344 -176.29346922753146 6.5021199090315305 -46.91449870628482 5.209140746893616 -2.1376073361920437e-07 7.811239433218051e-07 -4.377710769700878 1.5635163459870038 -40.39707254324517 81.01275337073166 -6.346005362042662e-07 2.56966386659868e-06 20.67203711939274 -179.99995165866778 -83.69186658432808 -164.91014591830867 6.3611093629270335e-15 -1.1034765745125397e-31 -1.987846675914698e-15 27.460721940301504 -35.26642970462542 -57.95962642610379 1.033209790517291e-06 -5.5525998083397925e-06 -10.181932188414091 -3.230946615090125e-07 3.4317169235911913 -25.489156249664564 -4.770832022195275e-15 7.95138670365879e-15 7.95138670365879e-15 -0.38824792672411135 -10.544098905476744 41.68625076595987 -8.575374248535319 -5.924023457386917 -0.733468577289738 90.00960175424925 41.85551122223876 -79.53899000360195 0.0 6.3611093629270335e-15 0.0 2.820814728227865 -9.45273290712613 -41.02302538946041 2.0497227503048254 -5.614137381657335 0.2476666870801728 -89.99245718857168 46.04282795632739 86.49398400759279 8.945310041616142e-16 0.0 0.0
-13.48740005493164 0.5077999830245972 -269.680419921875 0.8653635867441496 -2.457788010167651 -176.99586939909045 6.298033368959313 -46.5620513048189 5.845398830436352 -1.8065955969437029e-07 1.8368538804896934e-06 -4.9751079908945925 3.942885466187052 -40.240567587771096 82.35240091489466 -1.5846723759821052e-06 1.5732926490603504e-06 21.245360745931976 179.99998166856633 -79.03257257396741 -165.58448091975055 0.0 0.0 7.951386703658792e-16 29.79858743330073 -34.496326430416495 -56.337539857819436 -3.15618164045044e-06 -1.7321626736153615e-06 -10.086400422891117 -3.736490092071262e-07 2.144539816516064 -28.018614384840326 -2.2069531490250793e-31 7.951386703658792e-15 3.1805546814635168e-15 -0.8175350197911045 -10.080350075825718 41.81788838564838 -9.00677222938642 -7.134479714734392 -0.8874935783036885 89.99969462306203 41.62271840606357 -79.44619712740227 0.0 6.3611093629270335e-15 0.0 2.4181809297492878 -8.954343330063661 -40.95256555314041 1.8146950314371266 -5.812791704933949 0.29553083987444123 -89.99986471685634 46.334558819173594 85.99318652406423 -3.975693351829395e-16 -6.361109362927032e-15 -2.2069531490250793e-32
